<svg width="127" height="33" viewBox="0 0 127 33" fill="none" xmlns="http://www.w3.org/2000/svg">
<path d="M13.6417 31.5001C12.7461 31.5001 11.7511 31.4001 10.8556 31.3001C10.2586 31.2001 9.96005 31.0001 9.76104 30.5001C9.66154 30.3001 9.66156 29.9001 9.66156 29.2001V16.3001V3.40009V0.600098H1.90035C1.00483 0.600098 0.507324 0.700061 0.507324 1.00006C0.507324 1.20006 0.80582 1.40009 1.30333 1.40009C1.40283 1.40009 1.60186 1.40009 1.70137 1.40009H2.19888C2.9949 1.40009 3.5919 1.5001 3.98991 1.6001C4.58693 1.8001 4.88543 2.40011 4.88543 3.30011V30.2001C4.88543 30.7001 4.68642 31.0001 4.38792 31.1001C4.18891 31.4001 3.29341 31.5001 1.70137 31.5001C1.00485 31.5001 0.606833 31.6001 0.606833 31.8001C0.606833 32.1001 1.10435 32.3001 2.09937 32.3001H2.79587C7.8705 32.3001 11.3531 32.3001 13.2436 32.3001C13.3431 32.3001 13.5421 32.3001 13.7411 32.3001C14.2387 32.3001 14.4377 32.1001 14.4377 31.8001C14.2387 31.6001 14.0397 31.5001 13.6417 31.5001Z" fill="#010000"/>
<path opacity="0.65" d="M12.3483 11.6001C13.0448 11.6001 13.5424 11.1001 13.5424 10.4001C13.5424 9.70009 13.0448 9.20007 12.3483 9.20007C11.6518 9.20007 11.1543 9.70009 11.1543 10.4001C11.1543 11.1001 11.7513 11.6001 12.3483 11.6001Z" fill="black"/>
<path opacity="0.65" d="M12.3481 7.50006C13.9402 7.50006 15.1342 8.80011 15.1342 10.3001C15.1342 11.8001 13.8407 13.1001 12.3481 13.1001V14.2001C14.5372 14.2001 16.3282 12.4001 16.3282 10.2001C16.3282 8.00007 14.5372 6.20007 12.3481 6.20007V7.50006ZM12.3481 2.1001C16.6268 2.1001 20.6069 5.70009 20.6069 10.4001C20.6069 14.9001 17.0248 18.7001 12.3481 18.7001V20.2001C17.7213 20.2001 22.0994 15.8001 22.0994 10.4001C22.0994 5.00009 17.7213 0.600098 12.3481 0.600098V2.1001ZM12.3481 17.2001C16.1292 17.2001 19.1143 14.1001 19.1143 10.4001C19.1143 6.60009 16.0297 3.6001 12.3481 3.6001V4.90009C15.5322 4.90009 17.8208 7.50009 17.8208 10.4001C17.8208 13.5001 15.7312 15.9001 12.3481 15.9001V17.2001Z" fill="black"/>
<path d="M36.3285 32C36.3285 32.3 36.03 32.4 35.433 32.4C35.433 32.4 35.0349 32.4 34.2389 32.3C33.2439 32.2 32.3484 32.2 31.7514 32.2H26.4777C26.2787 32.3 26.0797 32.4 25.8807 32.4C25.4827 32.4 25.2837 32.3 25.2837 32.1C25.2837 31.8 25.5822 31.6 26.2787 31.6C27.5722 31.6 28.2688 31.5 28.3683 31.3C28.4678 31.2 28.5673 30.5 28.5673 29.4V15.6C28.5673 14.8 28.4678 14.4 28.4678 14.3C28.3683 14.2 28.1693 14.1 27.8708 14.1H26.3782C26.2787 14.1 26.0797 14.1 25.8807 14.1C25.4827 14.1 25.2837 14 25.2837 13.8C25.2837 13.6 25.5822 13.5 26.0797 13.5C28.2688 13.4 30.1593 12.9 31.7514 12.1L32.2489 11.8C32.5474 12.3 32.6469 13.1 32.6469 14.3C32.6469 14.2 32.6469 14.4 32.6469 14.8C32.6469 15.2 32.6469 15.8 32.6469 16.6V29C32.6469 30.2 32.6469 30.9 32.7464 31.1C32.8459 31.3 32.9454 31.4 33.2439 31.5C33.7414 31.6 34.4379 31.7 35.433 31.7C36.1295 31.6 36.3285 31.7 36.3285 32ZM32.5474 3.60004C32.5474 5.00004 31.7514 5.60004 30.2588 5.60004C29.6618 5.60004 29.0648 5.4 28.6668 5C28.2688 4.6 27.9703 4.20004 27.9703 3.60004C27.9703 2.20004 28.7663 1.5 30.2588 1.5C31.7514 1.6 32.5474 2.30004 32.5474 3.60004Z" fill="#010000"/>
<path d="M42.7958 0.600029C43.1938 0.200029 43.5918 0.100005 43.9898 0.200005C44.1888 0.400005 46.2784 3.49999 47.7709 5.49999C49.2635 7.49999 49.8605 7.49999 45.5819 7.49999V29.5C45.5819 30.4 45.5819 30.9 45.6814 31.1C45.6814 31.3 45.8804 31.4 46.0794 31.4C46.0794 31.4 46.7759 31.5 47.9699 31.5C48.766 31.5 49.164 31.6 49.164 31.8C49.164 32.1 48.965 32.2 48.4675 32.2H47.8704C47.7709 32.2 46.8754 32.2 45.1839 32.1H43.5918C43.2933 32.1 41.9998 32.1 39.6117 32.2C39.4127 32.2 39.2137 32.2 39.0147 32.2C38.5172 32.2 38.2187 32.1 38.2187 31.8C38.2187 31.6 38.4177 31.5 38.8157 31.5H40.1092C41.0047 31.5 41.5023 31.3 41.5023 31C41.5023 30.8 41.6018 29.6 41.6018 27.5V7.49999C41.0047 7.49999 40.5073 7.49999 40.0097 7.49999C37.3232 7.49999 37.7212 7.19999 39.1142 5.49999C40.2087 3.89999 42.7958 0.600029 42.7958 0.600029Z" fill="#010000"/>
<path d="M54.8359 31.3C53.8408 30.2 52.4478 28.8 51.9503 28.1C50.4578 26.1 50.4577 26.2 54.0398 26.2V4.40002C54.0398 3.40002 54.0398 2.90005 53.9403 2.80005C53.8408 2.60005 53.5423 2.40002 53.1443 2.40002H52.7463H51.3533C50.8558 2.40002 50.6567 2.3 50.6567 2C50.6567 1.8 51.0548 1.60004 51.9503 1.60004C53.5423 1.50004 55.0349 1.20004 56.4279 0.600037L57.5224 0.100037L57.9204 0C58.2189 0.9 58.3184 2.2 58.3184 4V7.20001V26.1C62 26.1 62 26.1 60.5075 28.1C59.9105 28.8 58.7165 30.6 57.8209 31.5C56.3284 32.8 56.5274 33.1 54.8359 31.3Z" fill="#010000"/>
<path d="M78.2189 32.1C75.6318 33.1 71.6517 32.8 69.4627 31.8C67.2736 30.8 66.0796 29.4 65.1841 28.3L68.2686 26.5C68.7661 27.7 69.0647 28.5 69.8607 29.5C71.8508 32.1 75.8309 32.7 78.3184 30.7C78.8159 30.3 79.612 29.5 79.811 29.1L77.3234 28.8L83.4926 26L82.199 31.9L81.5025 30.2C80.1095 31.6 78.2189 32.1 78.2189 32.1Z" fill="black"/>
<path d="M70.3581 12.9001C72.9452 12.0001 76.9252 12.4 79.1143 13.5C81.3034 14.5 82.3979 16.0001 83.2934 17.1001L80.2088 18.9001C79.7113 17.7001 79.4128 16.9001 78.7163 15.9001C76.7262 13.2001 72.8456 12.5001 70.2586 14.4001C69.761 14.8001 68.8655 15.6001 68.766 15.9001L71.2536 16.2001L65.0845 18.8001L66.4775 12.9001L67.174 14.6001C68.4675 13.3001 70.3581 12.9001 70.3581 12.9001Z" fill="black"/>
<path d="M99.5123 32.1C96.9253 33.1 92.9452 32.8 90.7561 31.8C88.5671 30.8 87.3731 29.4 86.4775 28.3L89.5621 26.5C90.0596 27.7 90.3581 28.5 91.1541 29.5C93.1442 32.1 97.1243 32.7 99.6118 30.7C100.109 30.3 100.905 29.5 101.104 29.1L98.6168 28.8L104.786 26L103.492 31.9L102.796 30.2C101.502 31.6 99.5123 32.1 99.5123 32.1Z" fill="black"/>
<path d="M91.7512 12.9001C94.3382 12.0001 98.3183 12.4 100.507 13.5C102.696 14.5 103.791 16.0001 104.686 17.1001L101.602 18.9001C101.104 17.7001 100.806 16.9001 100.109 15.9001C98.1193 13.2001 94.2387 12.5001 91.6516 14.4001C91.1541 14.8001 90.2586 15.6001 90.1591 15.9001L92.6466 16.2001L86.4775 18.8001L87.8705 12.9001L88.5671 14.6001C89.8606 13.3001 91.7512 12.9001 91.7512 12.9001Z" fill="black"/>
<path d="M121.105 32.1C118.518 33.1 114.538 32.8 112.348 31.8C110.159 30.8 108.965 29.4 108.07 28.3L111.154 26.5C111.652 27.7 111.95 28.5 112.746 29.5C114.737 32.1 118.717 32.7 121.204 30.7C121.702 30.3 122.498 29.5 122.697 29.1L120.209 28.8L126.378 26L125.085 31.9L124.388 30.2C122.995 31.6 121.105 32.1 121.105 32.1Z" fill="black"/>
<path d="M113.344 12.9001C115.931 12.0001 119.911 12.4 122.1 13.5C124.289 14.5 125.383 16.0001 126.279 17.1001L123.194 18.9001C122.697 17.7001 122.398 16.9001 121.702 15.9001C119.712 13.2001 115.831 12.5001 113.244 14.4001C112.746 14.8001 111.851 15.6001 111.751 15.9001L114.239 16.2001L108.07 18.8001L109.463 12.9001L110.159 14.6001C111.353 13.3001 113.344 12.9001 113.344 12.9001Z" fill="black"/>
</svg>
