<svg width="200" height="59" viewBox="0 0 200 59" fill="none" xmlns="http://www.w3.org/2000/svg">
<path d="M21.1589 56.0209C19.7485 56.0209 18.1813 55.8429 16.7709 55.6648C15.8306 55.4867 15.3604 55.1304 15.047 54.2398C14.8903 53.8836 14.8903 53.1712 14.8903 51.9244V28.9481V5.97171V0.984619H2.66664C1.25622 0.984619 0.472656 1.16267 0.472656 1.697C0.472656 2.05322 0.942778 2.40949 1.72635 2.40949C1.88306 2.40949 2.19653 2.40949 2.35324 2.40949H3.13681C4.39052 2.40949 5.33078 2.58762 5.95764 2.76573C6.89792 3.12195 7.36805 4.19064 7.36805 5.79364V53.7055C7.36805 54.5961 7.05462 55.1304 6.58448 55.3086C6.27105 55.8429 4.86066 56.0209 2.35324 56.0209C1.25624 56.0209 0.62938 56.1991 0.62938 56.5554C0.62938 57.0897 1.41295 57.4459 2.98009 57.4459H4.07705C12.0695 57.4459 17.5544 57.4459 20.532 57.4459C20.6887 57.4459 21.0021 57.4459 21.3156 57.4459C22.0991 57.4459 22.4126 57.0897 22.4126 56.5554C22.0991 56.1991 21.7857 56.0209 21.1589 56.0209Z" fill="#FFFCFC"/>
<path opacity="0.65" d="M19.1677 20.6803C20.3394 20.6803 21.1763 19.7912 21.1763 18.5466C21.1763 17.3019 20.3394 16.4128 19.1677 16.4128C17.9961 16.4128 17.1592 17.3019 17.1592 18.5466C17.1592 19.7912 18.1634 20.6803 19.1677 20.6803Z" fill="white"/>
<path opacity="0.65" d="M19.3228 13.2339C21.7949 13.2339 23.649 15.5419 23.649 18.2048C23.649 20.8678 21.6403 23.1757 19.3228 23.1757V25.1285C22.7219 25.1285 25.503 21.9329 25.503 18.0273C25.503 14.1216 22.7219 10.926 19.3228 10.926V13.2339ZM19.3228 3.64733C25.9665 3.64733 32.1468 10.0384 32.1468 18.3823C32.1468 26.3712 26.5845 33.1173 19.3228 33.1173V35.7803C27.6661 35.7803 34.4644 27.969 34.4644 18.3823C34.4644 8.79569 27.6661 0.984375 19.3228 0.984375V3.64733ZM19.3228 30.4544C25.194 30.4544 29.8292 24.951 29.8292 18.3823C29.8292 11.6362 25.0395 6.31029 19.3228 6.31029V8.61816C24.267 8.61816 27.8206 13.234 27.8206 18.3823C27.8206 23.8858 24.576 28.1465 19.3228 28.1465V30.4544Z" fill="white"/>
<path d="M57.0215 56.7363C57.0215 57.2685 56.5538 57.446 55.6184 57.446C55.6184 57.446 54.9948 57.446 53.7476 57.2686C52.1887 57.0912 50.7856 57.0911 49.8502 57.0911H41.5876C41.2758 57.2685 40.964 57.446 40.6522 57.446C40.0286 57.446 39.7168 57.2686 39.7168 56.9138C39.7168 56.3815 40.1845 56.0267 41.2758 56.0267C43.3025 56.0267 44.3938 55.8493 44.5497 55.4945C44.7056 55.3171 44.8615 54.0752 44.8615 52.1236V27.641C44.8615 26.2217 44.7056 25.5121 44.7056 25.3346C44.5497 25.1572 44.2379 24.9798 43.7702 24.9798H41.4317C41.2758 24.9798 40.964 24.9798 40.6522 24.9798C40.0286 24.9798 39.7168 24.8024 39.7168 24.4476C39.7168 24.0928 40.1845 23.9153 40.964 23.9153C44.3938 23.7379 47.3558 22.8509 49.8502 21.4316L50.6297 20.8994C51.0974 21.7864 51.2533 23.2057 51.2533 25.3346C51.2533 25.1572 51.2533 25.5121 51.2533 26.2217C51.2533 26.9313 51.2533 27.9958 51.2533 29.4151V51.414C51.2533 53.5429 51.2533 54.7848 51.4092 55.1396C51.5651 55.4945 51.721 55.6718 52.1887 55.8492C52.9682 56.0266 54.0595 56.2041 55.6184 56.2041C56.7097 56.0267 57.0215 56.204 57.0215 56.7363ZM51.0974 6.35167C51.0974 8.83542 49.8502 9.89989 47.5117 9.89989C46.5763 9.89989 45.6409 9.545 45.0173 8.83536C44.3937 8.12571 43.9261 7.41613 43.9261 6.35167C43.9261 3.86792 45.1732 2.62598 47.5117 2.62598C49.8502 2.80339 51.0974 4.04533 51.0974 6.35167Z" fill="#FFFCFC"/>
<path d="M67.345 1.10141C67.9744 0.392343 68.6039 0.215032 69.2333 0.3923C69.548 0.746835 72.8526 6.24211 75.213 9.78746C77.5734 13.3328 78.5175 13.3328 71.751 13.3328V52.3317C71.751 53.9271 71.751 54.8135 71.9084 55.168C71.9084 55.5226 72.2231 55.6998 72.5378 55.6998C72.5378 55.6998 73.6394 55.877 75.5277 55.877C76.7866 55.877 77.416 56.0544 77.416 56.4089C77.416 56.9407 77.1013 57.1179 76.3145 57.1179H75.3703C75.213 57.1179 73.7967 57.118 71.1216 56.9407H68.6038C68.1317 56.9407 66.0861 56.9407 62.3094 57.1179C61.9947 57.1179 61.68 57.1179 61.3653 57.1179C60.5785 57.1179 60.1064 56.9407 60.1064 56.4089C60.1064 56.0544 60.4211 55.877 61.0505 55.877H63.0962C64.5125 55.877 65.2993 55.5225 65.2993 54.9907C65.2993 54.6362 65.4566 52.5089 65.4566 48.7863V13.3328C64.5125 13.3328 63.7257 13.3328 62.9389 13.3328C58.6902 13.3328 59.3196 12.801 61.5226 9.78746C63.2536 6.95118 67.345 1.10141 67.345 1.10141Z" fill="#FFFCFC"/>
<path d="M86.4737 55.5339C84.9058 53.5822 82.7109 51.0983 81.9269 49.8563C79.5751 46.3078 79.5751 46.4852 85.2194 46.4852V7.80671C85.2194 6.03247 85.2194 5.14539 85.0626 4.96797C84.9059 4.61312 84.4355 4.25823 83.8083 4.25823H83.1812H80.9862C80.2023 4.25823 79.8887 4.08076 79.8887 3.54849C79.8887 3.19364 80.5158 2.83885 81.9269 2.83885C84.4355 2.66143 86.7873 2.12916 88.9823 1.06461L90.7069 0.177489L91.3341 0C91.8045 1.59682 91.9612 3.90333 91.9612 7.09697V12.7746V46.3078C97.7623 46.3078 97.7623 46.3078 95.4105 49.8563C94.4698 51.0983 92.5884 54.2918 91.1773 55.8886C88.8255 58.1952 89.1391 58.7275 86.4737 55.5339Z" fill="#FFFCFC"/>
<path d="M123.437 57.0178C119.332 58.7773 113.018 58.2495 109.545 56.49C106.071 54.7306 104.177 52.2674 102.756 50.332L107.65 47.165C108.439 49.2763 108.913 50.6838 110.176 52.4433C113.333 57.0178 119.648 58.0734 123.595 54.5546C124.384 53.8508 125.647 52.4433 125.963 51.7396L122.016 51.2118L131.804 46.2853L129.751 56.6659L128.646 53.6749C126.436 56.1381 123.437 57.0178 123.437 57.0178Z" fill="white"/>
<path d="M110.859 22.8707C114.986 21.2788 121.335 21.9863 124.827 23.9318C128.319 25.7006 130.065 28.3537 131.494 30.2993L126.573 33.483C125.78 31.3605 125.304 29.9455 124.192 28.1768C121.018 23.4013 114.827 22.1632 110.701 25.5237C109.907 26.2312 108.478 27.6462 108.32 28.1768L112.288 28.7074L102.447 33.3062L104.669 22.8707L105.78 25.8775C107.843 23.5782 110.859 22.8707 110.859 22.8707Z" fill="white"/>
<path d="M157.119 57.0178C153.014 58.7773 146.7 58.2495 143.227 56.49C139.754 54.7306 137.859 52.2674 136.438 50.332L141.332 47.165C142.122 49.2763 142.595 50.6838 143.858 52.4433C147.015 57.0178 153.33 58.0734 157.277 54.5546C158.066 53.8508 159.329 52.4433 159.645 51.7396L155.698 51.2118L165.486 46.2853L163.433 56.6659L162.328 53.6749C160.276 56.1381 157.119 57.0178 157.119 57.0178Z" fill="white"/>
<path d="M144.762 22.8707C148.845 21.2788 155.126 21.9863 158.581 23.9318C162.036 25.7006 163.763 28.3537 165.177 30.2993L160.308 33.483C159.523 31.3605 159.052 29.9455 157.953 28.1768C154.812 23.4013 148.687 22.1632 144.604 25.5237C143.819 26.2312 142.406 27.6462 142.249 28.1768L146.175 28.7074L136.438 33.3062L138.637 22.8707L139.736 25.8775C141.778 23.5782 144.762 22.8707 144.762 22.8707Z" fill="white"/>
<path d="M191.111 57.0178C187.007 58.7773 180.692 58.2495 177.219 56.49C173.746 54.7306 171.851 52.2674 170.431 50.332L175.325 47.165C176.114 49.2763 176.587 50.6838 177.85 52.4433C181.008 57.0178 187.322 58.0734 191.269 54.5546C192.058 53.8508 193.321 52.4433 193.637 51.7396L189.69 51.2118L199.478 46.2853L197.426 56.6659L196.321 53.6749C194.11 56.1381 191.111 57.0178 191.111 57.0178Z" fill="white"/>
<path d="M178.754 22.8707C182.837 21.2788 189.118 21.9863 192.573 23.9318C196.028 25.7006 197.756 28.3537 199.169 30.2993L194.301 33.483C193.515 31.3605 193.044 29.9455 191.945 28.1768C188.804 23.4013 182.68 22.1632 178.597 25.5237C177.812 26.2312 176.398 27.6462 176.241 28.1768L180.167 28.7074L170.431 33.3062L172.629 22.8707L173.729 25.8775C175.613 23.5782 178.754 22.8707 178.754 22.8707Z" fill="white"/>
</svg>
